# xmcd
#
# Track frame offsets:
#	150
#	20585
#	39723
#	58740
#	75867
#	91375
#	105012
#	117351
#	134554
#	149617
#	170174
#	187684
#	211100
#	229800
#
# Disc length: 3303
#
# Revision: 1
# Processed by: cddbd v1.5.1PL0 Copyright (c) Steve Scherf et al.
# Submitted via: dBpowerAMP V4.0
# Normalized: r0:TDELIM( - )
#
DISCID=b80ce50e
DTITLE=Varios interpretes - Swing Brasil Samba-Rock
DYEAR=2004
DGENRE=Samba
TTITLE0=Marcelo Fragoso - Samba Rock Animal
TTITLE1=sambasonics - babulina
TTITLE2=assis valente - Samba de Natal
TTITLE3=sambasonics - Quem tem tem
TTITLE4=novos crioulos - samba da união
TTITLE5=cravo e canela - nega de canecalon
TTITLE6=grupo pesquisa - swing do Brasil
TTITLE7=doni - melo do assuvio
TTITLE8=cravo e canela - recado
TTITLE9=frank frank - to atrasado meu
TTITLE10=cravo e canela - apoteose
TTITLE11=bio do cavaco - jessica
TTITLE12=cravo  e canela - tereza raquel
TTITLE13=doni - paz amor batucada
EXTD=
EXTT0=
EXTT1=
EXTT2=
EXTT3=
EXTT4=
EXTT5=
EXTT6=
EXTT7=
EXTT8=
EXTT9=
EXTT10=
EXTT11=
EXTT12=
EXTT13=
PLAYORDER=
